<svg xmlns="http://www.w3.org/2000/svg" xmlns:xlink="http://www.w3.org/1999/xlink" width="1128" zoomAndPan="magnify" viewBox="0 0 846 143.249994" height="191" preserveAspectRatio="xMidYMid meet" version="1.0"><defs><g/><clipPath id="f173d58aa4"><path d="M 143.171875 33 L 199 33 L 199 72 L 143.171875 72 Z M 143.171875 33 " clip-rule="nonzero"/></clipPath><clipPath id="39a0cb1adf"><path d="M 165.269531 11.667969 L 262.328125 11.667969 L 262.328125 130.824219 L 165.269531 130.824219 Z M 165.269531 11.667969 " clip-rule="nonzero"/></clipPath><clipPath id="698ad3d25e"><rect x="0" width="204" y="0" height="52"/></clipPath><clipPath id="ff95f60575"><rect x="0" width="196" y="0" height="52"/></clipPath><clipPath id="559c6650e5"><rect x="0" width="381" y="0" height="31"/></clipPath></defs><g clip-path="url(#f173d58aa4)"><path fill="#f7941e" d="M 180.074219 45.777344 C 185.042969 41.347656 191.320312 38.351562 198.253906 37.4375 L 198.878906 33.867188 C 190.527344 34.726562 182.984375 38.316406 177.164062 43.730469 L 170.664062 39.160156 L 180.523438 53.183594 C 177.613281 56.761719 175.550781 61.054688 174.636719 65.757812 L 168.941406 66.75 C 169.710938 60.917969 171.953125 55.550781 175.285156 51.03125 L 173.1875 48.050781 C 168.917969 53.484375 166.117188 60.125 165.375 67.375 L 143.171875 71.246094 L 177.554688 71.25 L 177.585938 71.25 L 177.585938 71.246094 C 177.585938 64.296875 180.402344 58.003906 184.957031 53.453125 C 187.207031 51.199219 189.882812 49.375 192.855469 48.101562 L 193.550781 44.117188 C 190.292969 45.222656 187.300781 46.898438 184.691406 49.019531 L 180.074219 45.777344 " fill-opacity="1" fill-rule="nonzero"/></g><g clip-path="url(#39a0cb1adf)"><path fill="#f7941e" d="M 192.253906 81.742188 C 189.566406 79.054688 187.90625 75.34375 187.90625 71.246094 C 187.90625 67.148438 189.566406 63.4375 192.253906 60.75 C 194.941406 58.0625 198.648438 56.402344 202.75 56.402344 C 206.847656 56.402344 210.558594 58.0625 213.246094 60.75 C 215.929688 63.4375 217.59375 67.148438 217.59375 71.246094 C 217.59375 75.34375 215.929688 79.054688 213.246094 81.742188 C 210.558594 84.425781 206.847656 86.089844 202.75 86.089844 C 198.648438 86.089844 194.941406 84.425781 192.253906 81.742188 Z M 224.976562 89.304688 C 227.882812 85.726562 229.945312 81.4375 230.859375 76.734375 L 236.554688 75.738281 C 235.785156 81.574219 233.542969 86.941406 230.214844 91.460938 L 232.308594 94.441406 C 236.578125 89.007812 239.382812 82.367188 240.125 75.117188 L 262.328125 71.246094 L 240.324219 71.242188 L 236.847656 71.242188 L 227.945312 71.238281 L 227.914062 71.238281 L 227.914062 71.246094 C 227.914062 78.195312 225.097656 84.484375 220.542969 89.039062 C 218.289062 91.292969 215.609375 93.121094 212.636719 94.390625 L 214.175781 85.558594 C 214.710938 85.132812 215.21875 84.679688 215.699219 84.195312 C 219.015625 80.882812 221.066406 76.304688 221.066406 71.246094 C 221.066406 68.570312 220.492188 66.027344 219.460938 63.738281 L 227.152344 65.078125 L 230.855469 65.722656 C 230.605469 64.460938 230.277344 63.226562 229.871094 62.03125 C 228.765625 58.78125 227.09375 55.792969 224.972656 53.1875 L 228.21875 48.570312 C 232.648438 53.542969 235.644531 59.816406 236.554688 66.75 L 240.125 67.375 C 239.269531 59.023438 235.679688 51.480469 230.265625 45.660156 L 234.835938 39.160156 L 228.335938 43.730469 L 225.421875 45.773438 L 225.425781 45.777344 L 220.808594 49.019531 C 217.234375 46.113281 212.941406 44.046875 208.234375 43.132812 L 207.242188 37.4375 C 213.078125 38.207031 218.445312 40.449219 222.964844 43.78125 L 225.945312 41.683594 C 220.511719 37.414062 213.871094 34.613281 206.621094 33.871094 L 202.75 11.667969 L 202.742188 46.050781 L 202.742188 46.082031 L 202.75 46.082031 C 209.699219 46.082031 215.988281 48.898438 220.542969 53.453125 C 222.792969 55.699219 224.617188 58.371094 225.886719 61.335938 L 217.046875 59.792969 C 216.625 59.269531 216.175781 58.769531 215.699219 58.292969 C 212.386719 54.980469 207.804688 52.929688 202.75 52.929688 C 200.078125 52.929688 197.542969 53.5 195.253906 54.527344 L 196.59375 46.839844 L 197.242188 43.136719 C 195.980469 43.382812 194.746094 43.710938 193.550781 44.117188 L 192.855469 48.101562 L 191.3125 56.9375 C 190.785156 57.363281 190.277344 57.816406 189.796875 58.292969 C 186.484375 61.609375 184.433594 66.1875 184.433594 71.246094 C 184.433594 73.90625 185 76.4375 186.023438 78.71875 L 174.636719 76.734375 C 174.882812 77.996094 175.214844 79.230469 175.621094 80.425781 L 175.617188 80.425781 C 176.71875 83.6875 178.394531 86.6875 180.523438 89.304688 L 177.277344 93.921875 C 172.851562 88.949219 169.855469 82.671875 168.941406 75.738281 L 165.375 75.117188 C 166.226562 83.46875 169.816406 91.011719 175.234375 96.832031 L 170.664062 103.332031 L 184.691406 93.46875 C 188.265625 96.378906 192.558594 98.445312 197.261719 99.355469 L 198.253906 105.050781 C 192.421875 104.285156 187.050781 102.042969 182.535156 98.710938 L 179.554688 100.804688 C 184.988281 105.074219 191.625 107.878906 198.878906 108.621094 L 202.75 130.824219 L 202.753906 96.441406 L 202.753906 96.410156 L 202.75 96.410156 C 195.800781 96.410156 189.507812 93.59375 184.957031 89.039062 C 182.699219 86.78125 180.867188 84.097656 179.597656 81.117188 L 179.605469 81.121094 L 188.421875 82.660156 C 188.851562 83.195312 189.3125 83.710938 189.796875 84.195312 C 193.113281 87.511719 197.691406 89.5625 202.75 89.5625 C 205.417969 89.5625 207.953125 88.992188 210.238281 87.964844 L 208.898438 95.65625 L 208.253906 99.355469 C 209.515625 99.109375 210.746094 98.78125 211.945312 98.375 C 215.203125 97.269531 218.195312 95.597656 220.808594 93.46875 L 225.425781 96.714844 C 220.453125 101.144531 214.175781 104.140625 207.242188 105.050781 L 206.621094 108.621094 C 214.972656 107.765625 222.515625 104.175781 228.335938 98.761719 L 234.835938 103.332031 L 224.976562 89.304688 " fill-opacity="1" fill-rule="nonzero"/></g><g transform="matrix(1, 0, 0, 1, 286, 31)"><g clip-path="url(#698ad3d25e)"><g fill="#ffffff" fill-opacity="1"><g transform="translate(1.495071, 38.166716)"><g><path d="M 9.90625 -23.046875 L 9.90625 -15.5625 L 23.015625 -15.5625 L 23.015625 -10.3125 L 9.90625 -10.3125 L 9.90625 0 L 3.359375 0 L 3.359375 -28.3125 L 24.75 -28.3125 L 24.75 -23.046875 Z M 9.90625 -23.046875 "/></g></g></g><g fill="#ffffff" fill-opacity="1"><g transform="translate(29.355843, 38.166716)"><g><path d="M 22 -6.0625 L 8.859375 -6.0625 L 6.34375 0 L -0.359375 0 L 12.25 -28.3125 L 18.71875 -28.3125 L 31.375 0 L 24.5 0 Z M 19.9375 -11.046875 L 15.453125 -21.875 L 10.953125 -11.046875 Z M 19.9375 -11.046875 "/></g></g></g><g fill="#ffffff" fill-opacity="1"><g transform="translate(62.352031, 38.166716)"><g><path d="M 9.21875 -22.96875 L 0.15625 -22.96875 L 0.15625 -28.3125 L 24.828125 -28.3125 L 24.828125 -22.96875 L 15.765625 -22.96875 L 15.765625 0 L 9.21875 0 Z M 9.21875 -22.96875 "/></g></g></g><g fill="#ffffff" fill-opacity="1"><g transform="translate(89.363595, 38.166716)"><g><path d="M 29.3125 -28.3125 L 29.3125 0 L 22.765625 0 L 22.765625 -11.609375 L 9.90625 -11.609375 L 9.90625 0 L 3.359375 0 L 3.359375 -28.3125 L 9.90625 -28.3125 L 9.90625 -17.140625 L 22.765625 -17.140625 L 22.765625 -28.3125 Z M 29.3125 -28.3125 "/></g></g></g><g fill="#ffffff" fill-opacity="1"><g transform="translate(124.058151, 38.166716)"><g><path d="M 17.0625 0.484375 C 14.125 0.484375 11.472656 -0.144531 9.109375 -1.40625 C 6.753906 -2.675781 4.910156 -4.421875 3.578125 -6.640625 C 2.242188 -8.867188 1.578125 -11.375 1.578125 -14.15625 C 1.578125 -16.925781 2.242188 -19.421875 3.578125 -21.640625 C 4.910156 -23.867188 6.753906 -25.617188 9.109375 -26.890625 C 11.472656 -28.160156 14.125 -28.796875 17.0625 -28.796875 C 20 -28.796875 22.640625 -28.160156 24.984375 -26.890625 C 27.335938 -25.617188 29.1875 -23.867188 30.53125 -21.640625 C 31.875 -19.421875 32.546875 -16.925781 32.546875 -14.15625 C 32.546875 -11.375 31.875 -8.867188 30.53125 -6.640625 C 29.1875 -4.421875 27.335938 -2.675781 24.984375 -1.40625 C 22.640625 -0.144531 20 0.484375 17.0625 0.484375 Z M 17.0625 -5.09375 C 18.738281 -5.09375 20.25 -5.476562 21.59375 -6.25 C 22.9375 -7.019531 23.992188 -8.09375 24.765625 -9.46875 C 25.535156 -10.84375 25.921875 -12.40625 25.921875 -14.15625 C 25.921875 -15.90625 25.535156 -17.46875 24.765625 -18.84375 C 23.992188 -20.21875 22.9375 -21.289062 21.59375 -22.0625 C 20.25 -22.832031 18.738281 -23.21875 17.0625 -23.21875 C 15.394531 -23.21875 13.882812 -22.832031 12.53125 -22.0625 C 11.1875 -21.289062 10.128906 -20.21875 9.359375 -18.84375 C 8.585938 -17.46875 8.203125 -15.90625 8.203125 -14.15625 C 8.203125 -12.40625 8.585938 -10.84375 9.359375 -9.46875 C 10.128906 -8.09375 11.1875 -7.019531 12.53125 -6.25 C 13.882812 -5.476562 15.394531 -5.09375 17.0625 -5.09375 Z M 17.0625 -5.09375 "/></g></g></g><g fill="#ffffff" fill-opacity="1"><g transform="translate(160.208385, 38.166716)"><g><path d="M 29.109375 0 L 29.078125 -16.984375 L 20.75 -3 L 17.796875 -3 L 9.5 -16.625 L 9.5 0 L 3.359375 0 L 3.359375 -28.3125 L 8.78125 -28.3125 L 19.375 -10.71875 L 29.796875 -28.3125 L 35.1875 -28.3125 L 35.265625 0 Z M 29.109375 0 "/></g></g></g></g></g><g transform="matrix(1, 0, 0, 1, 510, 31)"><g clip-path="url(#ff95f60575)"><g fill="#ffffff" fill-opacity="1"><g transform="translate(0.137722, 38.144238)"><g><path d="M 3.359375 -28.3125 L 9.90625 -28.3125 L 9.90625 0 L 3.359375 0 Z M 3.359375 -28.3125 "/></g></g></g><g fill="#ffffff" fill-opacity="1"><g transform="translate(16.231469, 38.144238)"><g><path d="M 29.3125 -28.3125 L 29.3125 0 L 23.9375 0 L 9.828125 -17.1875 L 9.828125 0 L 3.359375 0 L 3.359375 -28.3125 L 8.78125 -28.3125 L 22.84375 -11.125 L 22.84375 -28.3125 Z M 29.3125 -28.3125 "/></g></g></g><g fill="#ffffff" fill-opacity="1"><g transform="translate(51.73477, 38.144238)"><g><path d="M 12.65625 0.484375 C 10.414062 0.484375 8.25 0.179688 6.15625 -0.421875 C 4.070312 -1.023438 2.394531 -1.816406 1.125 -2.796875 L 3.359375 -7.71875 C 4.566406 -6.832031 6.003906 -6.117188 7.671875 -5.578125 C 9.347656 -5.035156 11.023438 -4.765625 12.703125 -4.765625 C 14.554688 -4.765625 15.925781 -5.039062 16.8125 -5.59375 C 17.707031 -6.144531 18.15625 -6.878906 18.15625 -7.796875 C 18.15625 -8.472656 17.890625 -9.035156 17.359375 -9.484375 C 16.835938 -9.929688 16.164062 -10.285156 15.34375 -10.546875 C 14.519531 -10.816406 13.410156 -11.113281 12.015625 -11.4375 C 9.859375 -11.957031 8.09375 -12.472656 6.71875 -12.984375 C 5.34375 -13.492188 4.160156 -14.3125 3.171875 -15.4375 C 2.191406 -16.570312 1.703125 -18.082031 1.703125 -19.96875 C 1.703125 -21.613281 2.144531 -23.101562 3.03125 -24.4375 C 3.925781 -25.78125 5.269531 -26.84375 7.0625 -27.625 C 8.851562 -28.40625 11.039062 -28.796875 13.625 -28.796875 C 15.4375 -28.796875 17.203125 -28.578125 18.921875 -28.140625 C 20.648438 -27.710938 22.160156 -27.09375 23.453125 -26.28125 L 21.4375 -21.3125 C 18.820312 -22.789062 16.207031 -23.53125 13.59375 -23.53125 C 11.757812 -23.53125 10.398438 -23.234375 9.515625 -22.640625 C 8.640625 -22.046875 8.203125 -21.265625 8.203125 -20.296875 C 8.203125 -19.328125 8.707031 -18.601562 9.71875 -18.125 C 10.726562 -17.65625 12.273438 -17.191406 14.359375 -16.734375 C 16.515625 -16.222656 18.28125 -15.710938 19.65625 -15.203125 C 21.03125 -14.691406 22.207031 -13.882812 23.1875 -12.78125 C 24.175781 -11.675781 24.671875 -10.179688 24.671875 -8.296875 C 24.671875 -6.671875 24.21875 -5.191406 23.3125 -3.859375 C 22.40625 -2.523438 21.046875 -1.46875 19.234375 -0.6875 C 17.429688 0.09375 15.238281 0.484375 12.65625 0.484375 Z M 12.65625 0.484375 "/></g></g></g><g fill="#ffffff" fill-opacity="1"><g transform="translate(80.363821, 38.144238)"><g><path d="M 3.359375 -28.3125 L 9.90625 -28.3125 L 9.90625 0 L 3.359375 0 Z M 3.359375 -28.3125 "/></g></g></g><g fill="#ffffff" fill-opacity="1"><g transform="translate(96.457569, 38.144238)"><g><path d="M 22.484375 -14.59375 L 28.46875 -14.59375 L 28.46875 -3.109375 C 26.925781 -1.953125 25.144531 -1.0625 23.125 -0.4375 C 21.101562 0.175781 19.070312 0.484375 17.03125 0.484375 C 14.082031 0.484375 11.4375 -0.140625 9.09375 -1.390625 C 6.75 -2.648438 4.910156 -4.390625 3.578125 -6.609375 C 2.242188 -8.835938 1.578125 -11.351562 1.578125 -14.15625 C 1.578125 -16.957031 2.242188 -19.46875 3.578125 -21.6875 C 4.910156 -23.914062 6.765625 -25.65625 9.140625 -26.90625 C 11.515625 -28.164062 14.179688 -28.796875 17.140625 -28.796875 C 19.617188 -28.796875 21.867188 -28.375 23.890625 -27.53125 C 25.921875 -26.695312 27.625 -25.488281 29 -23.90625 L 24.78125 -20.015625 C 22.757812 -22.148438 20.320312 -23.21875 17.46875 -23.21875 C 15.664062 -23.21875 14.0625 -22.835938 12.65625 -22.078125 C 11.25 -21.328125 10.15625 -20.265625 9.375 -18.890625 C 8.59375 -17.515625 8.203125 -15.9375 8.203125 -14.15625 C 8.203125 -12.40625 8.59375 -10.84375 9.375 -9.46875 C 10.15625 -8.09375 11.238281 -7.019531 12.625 -6.25 C 14.019531 -5.476562 15.609375 -5.09375 17.390625 -5.09375 C 19.273438 -5.09375 20.972656 -5.5 22.484375 -6.3125 Z M 22.484375 -14.59375 "/></g></g></g><g fill="#ffffff" fill-opacity="1"><g transform="translate(130.464675, 38.144238)"><g><path d="M 29.3125 -28.3125 L 29.3125 0 L 22.765625 0 L 22.765625 -11.609375 L 9.90625 -11.609375 L 9.90625 0 L 3.359375 0 L 3.359375 -28.3125 L 9.90625 -28.3125 L 9.90625 -17.140625 L 22.765625 -17.140625 L 22.765625 -28.3125 Z M 29.3125 -28.3125 "/></g></g></g><g fill="#ffffff" fill-opacity="1"><g transform="translate(165.967975, 38.144238)"><g><path d="M 9.21875 -22.96875 L 0.15625 -22.96875 L 0.15625 -28.3125 L 24.828125 -28.3125 L 24.828125 -22.96875 L 15.765625 -22.96875 L 15.765625 0 L 9.21875 0 Z M 9.21875 -22.96875 "/></g></g></g></g></g><g transform="matrix(1, 0, 0, 1, 313, 84)"><g clip-path="url(#559c6650e5)"><g fill="#ffffff" fill-opacity="1"><g transform="translate(1.13676, 22.354583)"><g><path d="M 20.296875 -16.890625 L 20.296875 0 L 18.578125 0 L 18.578125 -13.515625 L 11.9375 -2.140625 L 11.09375 -2.140625 L 4.46875 -13.4375 L 4.46875 0 L 2.75 0 L 2.75 -16.890625 L 4.21875 -16.890625 L 11.5625 -4.359375 L 18.8125 -16.890625 Z M 20.296875 -16.890625 "/></g></g></g><g fill="#ffffff" fill-opacity="1"><g transform="translate(43.467874, 22.354583)"><g><path d="M 13.34375 -4.515625 L 3.9375 -4.515625 L 1.90625 0 L 0.046875 0 L 7.765625 -16.890625 L 9.53125 -16.890625 L 17.25 0 L 15.375 0 Z M 12.6875 -5.953125 L 8.640625 -15.03125 L 4.578125 -5.953125 Z M 12.6875 -5.953125 "/></g></g></g><g fill="#ffffff" fill-opacity="1"><g transform="translate(80.058342, 22.354583)"><g><path d="M 16.859375 -16.890625 L 16.859375 0 L 15.390625 0 L 4.53125 -13.703125 L 4.53125 0 L 2.75 0 L 2.75 -16.890625 L 4.21875 -16.890625 L 15.109375 -3.1875 L 15.109375 -16.890625 Z M 16.859375 -16.890625 "/></g></g></g><g fill="#ffffff" fill-opacity="1"><g transform="translate(118.964366, 22.354583)"><g><path d="M 13.34375 -4.515625 L 3.9375 -4.515625 L 1.90625 0 L 0.046875 0 L 7.765625 -16.890625 L 9.53125 -16.890625 L 17.25 0 L 15.375 0 Z M 12.6875 -5.953125 L 8.640625 -15.03125 L 4.578125 -5.953125 Z M 12.6875 -5.953125 "/></g></g></g><g fill="#ffffff" fill-opacity="1"><g transform="translate(155.554835, 22.354583)"><g><path d="M 14.640625 -8.4375 L 16.359375 -8.4375 L 16.359375 -2 C 15.566406 -1.3125 14.628906 -0.78125 13.546875 -0.40625 C 12.472656 -0.0390625 11.34375 0.140625 10.15625 0.140625 C 8.46875 0.140625 6.945312 -0.226562 5.59375 -0.96875 C 4.25 -1.707031 3.1875 -2.726562 2.40625 -4.03125 C 1.632812 -5.34375 1.25 -6.8125 1.25 -8.4375 C 1.25 -10.0625 1.632812 -11.53125 2.40625 -12.84375 C 3.1875 -14.15625 4.25 -15.179688 5.59375 -15.921875 C 6.945312 -16.660156 8.476562 -17.03125 10.1875 -17.03125 C 11.46875 -17.03125 12.644531 -16.820312 13.71875 -16.40625 C 14.800781 -16 15.710938 -15.394531 16.453125 -14.59375 L 15.34375 -13.46875 C 14.007812 -14.78125 12.3125 -15.4375 10.25 -15.4375 C 8.882812 -15.4375 7.648438 -15.132812 6.546875 -14.53125 C 5.441406 -13.925781 4.578125 -13.085938 3.953125 -12.015625 C 3.328125 -10.953125 3.015625 -9.757812 3.015625 -8.4375 C 3.015625 -7.125 3.328125 -5.9375 3.953125 -4.875 C 4.578125 -3.8125 5.4375 -2.972656 6.53125 -2.359375 C 7.625 -1.753906 8.859375 -1.453125 10.234375 -1.453125 C 11.960938 -1.453125 13.429688 -1.882812 14.640625 -2.75 Z M 14.640625 -8.4375 "/></g></g></g><g fill="#ffffff" fill-opacity="1"><g transform="translate(193.496028, 22.354583)"><g><path d="M 14.6875 -1.546875 L 14.6875 0 L 2.75 0 L 2.75 -16.890625 L 14.328125 -16.890625 L 14.328125 -15.34375 L 4.53125 -15.34375 L 4.53125 -9.34375 L 13.265625 -9.34375 L 13.265625 -7.8125 L 4.53125 -7.8125 L 4.53125 -1.546875 Z M 14.6875 -1.546875 "/></g></g></g><g fill="#ffffff" fill-opacity="1"><g transform="translate(228.928719, 22.354583)"><g><path d="M 20.296875 -16.890625 L 20.296875 0 L 18.578125 0 L 18.578125 -13.515625 L 11.9375 -2.140625 L 11.09375 -2.140625 L 4.46875 -13.4375 L 4.46875 0 L 2.75 0 L 2.75 -16.890625 L 4.21875 -16.890625 L 11.5625 -4.359375 L 18.8125 -16.890625 Z M 20.296875 -16.890625 "/></g></g></g><g fill="#ffffff" fill-opacity="1"><g transform="translate(271.259833, 22.354583)"><g><path d="M 14.6875 -1.546875 L 14.6875 0 L 2.75 0 L 2.75 -16.890625 L 14.328125 -16.890625 L 14.328125 -15.34375 L 4.53125 -15.34375 L 4.53125 -9.34375 L 13.265625 -9.34375 L 13.265625 -7.8125 L 4.53125 -7.8125 L 4.53125 -1.546875 Z M 14.6875 -1.546875 "/></g></g></g><g fill="#ffffff" fill-opacity="1"><g transform="translate(306.692523, 22.354583)"><g><path d="M 16.859375 -16.890625 L 16.859375 0 L 15.390625 0 L 4.53125 -13.703125 L 4.53125 0 L 2.75 0 L 2.75 -16.890625 L 4.21875 -16.890625 L 15.109375 -3.1875 L 15.109375 -16.890625 Z M 16.859375 -16.890625 "/></g></g></g><g fill="#ffffff" fill-opacity="1"><g transform="translate(345.598547, 22.354583)"><g><path d="M 6.03125 -15.34375 L 0.09375 -15.34375 L 0.09375 -16.890625 L 13.75 -16.890625 L 13.75 -15.34375 L 7.8125 -15.34375 L 7.8125 0 L 6.03125 0 Z M 6.03125 -15.34375 "/></g></g></g></g></g></svg>